# xmcd
#
# Track frame offsets:
# 150
# 10272
# 25496
# 39208
# 53217
# 64014
# 74190
# 85932
# 101642
# 111224
# 127527
# 136380
# 150686
# 162185
# 174304
# 188718
# 199002
# 213578
#
# Disc length: 2996 seconds
#
#
# Revision: 0
# Processed by: cddbd v1.5.2PL0 Copyright (c) Steve Scherf et al.
# Submitted via: FreeRIP 2.942 
#
DISCID=f40bb212
DTITLE=Jovem Guarda - Só Sucessos - O Melhor da Jovem Guarda
DYEAR=1960
DGENRE=Blues
TTITLE0=Feche os Olhos - Renato e Seus Blue Caps
TTITLE1=A Garota do Baile - Roberto Carlos
TTITLE2=Festa de Arromba - Erasmos Carlos
TTITLE3=Coração de Papel - Sergio Reis
TTITLE4=Mon Amour Meu Bem Ma Famme - Reginaldo Rossi
TTITLE5=Es o Meu Amor - Jerry Adriani
TTITLE6=Podre Menina - Leno e Lilian
TTITLE7=Era um Garoto que Como eu Amava os Beatles - Os Incriveis
TTITLE8=Meu Bem não me Quer - Renato e Seus Blue Caps
TTITLE9=Perto dos Olhos e Longe do Meu Coração - Dori Edson
TTITLE10=Brigas de Amor - Dori Edson
TTITLE11=Filme Triste - Trio Esperança
TTITLE12=Vem quente que Eu Estou Fervendo - Erasmos Carlos
TTITLE13=Prova de Fogo - Wanderleia
TTITLE14=Coruja - Deny e Dino
TTITLE15=O Calhambeque - Roberto Carlos
TTITLE16=Juramento de Playboy - Carlos Gonzaga
TTITLE17=Ritmo da Chuva - Demetrios
EXTD=
EXTT0=
EXTT1=
EXTT2=
EXTT3=
EXTT4=
EXTT5=
EXTT6=
EXTT7=
EXTT8=
EXTT9=
EXTT10=
EXTT11=
EXTT12=
EXTT13=
EXTT14=
EXTT15=
EXTT16=
EXTT17=
PLAYORDER=
